<?xml version="1.0" encoding="utf-8"?>
<!-- Generator: Adobe Illustrator 18.0.0, SVG Export Plug-In . SVG Version: 6.00 Build 0)  -->
<!DOCTYPE svg PUBLIC "-//W3C//DTD SVG 1.1//EN" "http://www.w3.org/Graphics/SVG/1.1/DTD/svg11.dtd">
<svg version="1.1" id="Layer_1" xmlns="http://www.w3.org/2000/svg" xmlns:xlink="http://www.w3.org/1999/xlink" x="0px" y="0px"
	 viewBox="0 0 726.3 186" enable-background="new 0 0 726.3 186" xml:space="preserve">
<polygon fill="#00B3DC" points="2.2,181.4 1.3,168 9.4,169.8 "/>
<polygon fill="#00B3DC" points="184.6,181.4 181.9,168 190,168.9 "/>
<polygon fill="#00B3DC" points="365,181.4 360.5,168 368.6,168 "/>
<polygon fill="#00B3DC" points="544.4,181.4 538.1,168.9 546.2,168 "/>
<polygon fill="#00B3DC" points="723.8,181.4 715.8,169.8 723.8,168 "/>
<path fill="#00B3DC" d="M364.5,4.8c-4.9,0-8.8,4-8.8,8.8c0,4.9,4,8.8,8.8,8.8c4.9,0,8.8-4,8.8-8.8C373.4,8.8,369.4,4.8,364.5,4.8z
	 M369.5,14.3h-4.3v4.3h-1.4v-4.3h-4.3V13h4.3V8.7h1.4V13h4.3V14.3z"/>
<g>
	<g>
		<line fill="none" stroke="#00B3DC" stroke-width="1.7838" stroke-miterlimit="10" x1="365" y1="27.1" x2="365" y2="29.1"/>
		
			<line fill="none" stroke="#00B3DC" stroke-width="1.7838" stroke-miterlimit="10" stroke-dasharray="4.0977,4.0977" x1="365" y1="33.2" x2="365" y2="162.3"/>
		<line fill="none" stroke="#00B3DC" stroke-width="1.7838" stroke-miterlimit="10" x1="365" y1="164.3" x2="365" y2="166.3"/>
	</g>
</g>
<g>
	<g>
		<path fill="none" stroke="#00B3DC" stroke-width="1.7942" stroke-miterlimit="10" d="M365.4,27.1c0,0,0.2,0.7,0.7,1.9"/>
		<path fill="none" stroke="#00B3DC" stroke-width="1.7942" stroke-miterlimit="10" stroke-dasharray="4.0694,4.0694" d="
			M367.8,32.7c6.4,12.8,27.5,44.9,87.3,67.1c61.3,22.8,79.1,50.1,83.7,59.9"/>
		<path fill="none" stroke="#00B3DC" stroke-width="1.7942" stroke-miterlimit="10" d="M539.7,161.6c0.5,1.2,0.7,1.9,0.7,1.9"/>
	</g>
</g>
<g>
	<g>
		<path fill="none" stroke="#00B3DC" stroke-width="1.7942" stroke-miterlimit="10" d="M368.1,27.1c0,0,0.1,0.7,0.5,1.9"/>
		<path fill="none" stroke="#00B3DC" stroke-width="1.7942" stroke-miterlimit="10" stroke-dasharray="4.0067,4.0067" d="
			M370.3,32.7c7.2,12.9,37.7,45.6,167.4,66.8c125.9,20.6,167.5,53,177.6,62.8"/>
		<path fill="none" stroke="#00B3DC" stroke-width="1.7942" stroke-miterlimit="10" d="M716.7,163.8c0.9,1,1.3,1.5,1.3,1.5"/>
	</g>
</g>
<g>
	<g>
		<path fill="none" stroke="#00B3DC" stroke-width="1.8058" stroke-miterlimit="10" d="M364.5,27.1c0,0-0.2,0.7-0.7,1.9"/>
		<path fill="none" stroke="#00B3DC" stroke-width="1.8058" stroke-miterlimit="10" stroke-dasharray="3.9584,3.9584" d="
			M362.2,32.6c-6.4,12.7-27.8,44.9-88.5,67.2c-62.2,22.8-80.2,50.2-84.9,60"/>
		<path fill="none" stroke="#00B3DC" stroke-width="1.8058" stroke-miterlimit="10" d="M188,161.6c-0.5,1.2-0.7,1.9-0.7,1.9"/>
	</g>
</g>
<g>
	<g>
		<path fill="none" stroke="#00B3DC" stroke-width="1.8058" stroke-miterlimit="10" d="M361.8,27.1c0,0-0.1,0.7-0.5,1.9"/>
		<path fill="none" stroke="#00B3DC" stroke-width="1.8058" stroke-miterlimit="10" stroke-dasharray="3.9672,3.9672" d="
			M359.6,32.6c-7.2,12.9-38.1,45.6-169.6,66.9c-127.7,20.7-169.8,53-179.9,62.9"/>
		<path fill="none" stroke="#00B3DC" stroke-width="1.8058" stroke-miterlimit="10" d="M8.7,163.8c-0.9,1-1.3,1.5-1.3,1.5"/>
	</g>
</g>
</svg>
