<?xml version="1.0" encoding="utf-8"?>
<!-- Generator: Adobe Illustrator 18.0.0, SVG Export Plug-In . SVG Version: 6.00 Build 0)  -->
<!DOCTYPE svg PUBLIC "-//W3C//DTD SVG 1.1//EN" "http://www.w3.org/Graphics/SVG/1.1/DTD/svg11.dtd">
<svg version="1.1" id="Layer_1" xmlns="http://www.w3.org/2000/svg" xmlns:xlink="http://www.w3.org/1999/xlink" x="0px" y="0px"
	 viewBox="0 0 724 186" enable-background="new 0 0 724 186" xml:space="preserve">
<path fill="none" stroke="#00B3DC" stroke-width="1.7942" stroke-miterlimit="10" d="M3.8,178.7v1.8 M5.6,171.6l-0.9,1.8 M8.3,165.3
	l-0.9,1.8 M12.8,159.9l-0.9,0.9 M18.2,154.5l-1.8,1.8 M23.6,150.9L23.6,150.9c0,0,0,0-0.9,0v0.9 M29.8,146.4l-1.8,0.9 M36.1,142.8
	l-1.8,0.9 M42.4,140.2l-0.9,0.9 M49.6,137.5h-1.8 M55.9,134.8h-1.8 M63,132.1l-1.8,0.9 M69.3,129.4l-0.9,0.9h-0.9 M76.5,127.6h-0.9
	h-0.9 M82.8,124.9l-1.8,0.9 M89.9,123.1l-1.8,0.9 M97.1,121.3h-1.8 M103.4,119.5h-1.8 M110.6,117.7L110.6,117.7c0,0,0,0-0.9,0h-0.9
	 M117.8,115.9H116 M124.9,114.1h-1.8 M131.2,112.3h-1.8 M138.4,110.5L138.4,110.5h-1.8 M145.6,108.8h-1.8 M152.7,107l-1.8,0.9
	 M159.9,105.2l-1.8,0.9 M166.2,104.3h-1.8 M173.4,102.5h-1.8 M180.6,100.7l-1.8,0.9 M187.7,98.9h-0.9v0.9h-0.9 M194.9,98h-1.8
	 M201.2,96.2h-1.8 M208.4,94.4l-1.8,0.9 M215.5,92.6l-1.8,0.9 M222.7,90.8l-1.8,0.9 M229.9,89.9h-1.8 M236.2,88.1h-0.9h-0.9
	 M243.3,86.3h-1.8 M250.5,84.5h-1.8 M257.7,82.7h-1.8 M264,80.9h-0.9h-0.9 M271.2,79.2h-1.8 M278.3,76.5l-1.8,0.9 M284.6,74.7
	l-1.8,0.9 M291.8,72.9H290 M299,70.2l-1.8,0.9 M305.2,67.5l-0.9,0.9c0,0,0,0-0.9,0 M312.4,64.8l-0.9,0.9c0,0,0,0-0.9,0 M318.7,62.1
	L318.7,62.1c0,0.9-0.9,0.9-0.9,0.9h-0.9 M325,59.4L325,59.4c0,0,0,0-0.9,0l-0.9,0.9 M331.3,55.8v0.9h-0.9 M337.5,52.2l-0.9,0.9V54
	 M343.8,48.7l-1.8,0.9 M349.2,44.2l-0.9,0.9 M354.6,38.8l-0.9,0.9l-0.9,0.9 M358.2,33.4l-0.9,1.8 M360.9,26.2V28"/>
<polygon fill="#00B3DC" points="3.8,181.4 2.9,168 11,169.8 "/>
<path fill="none" stroke="#00B3DC" stroke-width="1.7942" stroke-miterlimit="10" d="M183.2,176.9v1.8 M184.1,169.8L184.1,169.8v1.8
	 M185.9,162.6v0.9v0.9 M189.5,156.3l-0.9,0.9c0,0,0,0,0,0.9 M193.1,150l-0.9,1.8 M197.6,144.6l-0.9,1.8 M203,140.2l-1.8,0.9
	 M208.4,134.8l-1.8,1.8 M213.7,131.2l-0.9,0.9 M220,126.7l-1.8,0.9 M226.3,123.1h-0.9v0.9h-0.9 M232.6,119.5L232.6,119.5l-1.8,0.9
	 M238.9,115.9l-1.8,0.9 M245.1,113.2l-1.8,0.9 M251.4,109.7l-1.8,0.9 M257.7,107l-0.9,0.9 M264.9,104.3h-1.8 M271.2,100.7
	L271.2,100.7l-1.8,0.9 M277.4,98l-0.9,0.9 M284.6,95.3h-1.8 M290.9,91.7l-1.8,0.9 M297.2,89l-1.8,0.9 M303.5,85.4l-0.9,0.9
	 M309.7,82.7L309.7,82.7l-0.9,0.9 M316,79.2l-0.9,0.9 M322.3,75.6l-0.9,0.9 M328.6,71.1l-1.8,0.9 M334.9,67.5l-1.8,0.9 M340.2,63
	l-1.8,0.9 M345.6,57.6l-1.8,1.8 M350.1,52.2l-0.9,1.8 M354.6,46.9l-0.9,0.9 M357.3,40.6v1.8 M360,33.4v1.8 M361.8,27.1V28"/>
<polygon fill="#00B3DC" points="183.2,181.4 180.6,168 188.6,168.9 "/>
<path fill="none" stroke="#00B3DC" stroke-width="1.7942" stroke-miterlimit="10" d="M362.7,177.8v1.8 M362.7,170.7v1.8
	 M362.7,163.5v1.8 M362.7,156.3L362.7,156.3v0.9v0.9 M362.7,149.1v1.8 M362.7,141.9v1.8 M362.7,134.8v1.8 M362.7,127.6L362.7,127.6
	v1.8 M362.7,120.4v0.9v0.9 M362.7,113.2v1.8 M362.7,106.1v1.8 M362.7,98.9L362.7,98.9v1.8 M362.7,91.7v1.8 M362.7,84.5v1.8
	 M362.7,77.4v1.8 M362.7,70.2L362.7,70.2V72 M362.7,63L362.7,63c0,0,0,0,0,0.9v0.9 M362.7,55.8L362.7,55.8v1.8 M362.7,48.7v1.8
	 M362.7,41.5v1.8 M362.7,34.3v1.8 M362.7,27.1v1.8"/>
<polygon fill="#00B3DC" points="362.7,181.4 358.2,168 366.3,168 "/>
<path fill="none" stroke="#00B3DC" stroke-width="1.7942" stroke-miterlimit="10" d="M541.2,176.9v1.8 M540.3,169.8L540.3,169.8v1.8
	 M538.5,162.6v0.9v0.9 M534.9,156.3l0.9,0.9c0,0,0,0,0,0.9 M531.3,150l0.9,1.8 M526.8,144.6l0.9,1.8 M521.4,140.2l1.8,0.9
	 M516.1,134.8l1.8,1.8 M510.7,131.2l0.9,0.9 M504.4,126.7l1.8,0.9 M498.1,123.1h0.9c0,0,0,0.9,0.9,0.9 M491.8,119.5L491.8,119.5
	l1.8,0.9 M485.6,115.9l1.8,0.9 M479.3,113.2l1.8,0.9 M473,109.7l1.8,0.9 M466.7,107l0.9,0.9 M459.5,104.3h1.8 M453.3,100.7
	L453.3,100.7l1.8,0.9 M447,98l1.8,0.9 M439.8,95.3h1.8 M433.5,91.7l1.8,0.9 M427.3,89l1.8,0.9 M421,85.4l0.9,0.9h0.9 M414.7,82.7
	L414.7,82.7l0.9,0.9 M408.4,79.2l0.9,0.9 M402.1,75.6l1.8,0.9 M395.9,71.1l1.8,0.9 M390.5,67.5l0.9,0.9 M384.2,63l1.8,0.9
	 M378.8,57.6l1.8,1.8 M374.3,52.2l0.9,1.8 M369.8,46.9l1.8,0.9 M367.1,40.6l0.9,1.8 M364.5,33.4v1.8 M362.7,27.1l0.9,0.9"/>
<polygon fill="#00B3DC" points="542.1,181.4 535.8,168.9 543.9,168 "/>
<path fill="none" stroke="#00B3DC" stroke-width="1.7942" stroke-miterlimit="10" d="M720.6,178.7l0.9,1.8 M719.7,171.6v1.8
	 M716.1,165.3l0.9,1.8 M711.6,159.9l0.9,0.9 M706.2,154.5l1.8,1.8 M700.9,150.9L700.9,150.9h0.9v0.9 M694.6,146.4l1.8,0.9
	 M688.3,142.8l1.8,0.9 M682,140.2l1.8,0.9 M674.9,137.5h1.8 M668.6,134.8h1.8 M662.3,132.1l0.9,0.9 M655.1,129.4l0.9,0.9
	c0.9,0,0.9,0,0.9,0 M647.9,127.6h0.9h0.9 M641.7,124.9l1.8,0.9 M634.5,123.1l1.8,0.9 M627.3,121.3h1.8 M621,119.5h1.8 M613.8,117.7
	L613.8,117.7h0.9h0.9 M606.7,115.9h1.8 M599.5,114.1h1.8 M593.2,112.3h1.8 M586,110.5L586,110.5h1.8 M578.9,108.8h1.8 M571.7,107
	l1.8,0.9 M565.4,105.2l1.8,0.9 M558.2,104.3h1.8 M551.1,102.5h1.8 M543.9,100.7l1.8,0.9 M536.7,98.9h0.9v0.9h0.9 M530.4,98h0.9
	 M523.2,96.2h1.8 M516.1,94.4l1.8,0.9 M508.9,92.6l1.8,0.9 M501.7,90.8l1.8,0.9 M495.4,89.9h1.8 M488.3,88.1h0.9h0.9 M481.1,86.3
	h1.8 M473.9,84.5h1.8 M467.6,82.7h0.9 M460.4,80.9h0.9c0,0,0,0,0.9,0 M453.3,79.2h1.8 M446.1,76.5l1.8,0.9 M439.8,74.7l1.8,0.9
	 M432.6,72.9h1.8 M426.4,70.2l0.9,0.9 M419.2,67.5l0.9,0.9h0.9 M412.9,64.8v0.9h0.9 M405.7,62.1L405.7,62.1c0.9,0.9,0.9,0.9,0.9,0.9
	h0.9 M399.4,59.4L399.4,59.4c0,0,0,0,0.9,0l0.9,0.9 M393.2,55.8v0.9h0.9h0.9 M386.9,52.2l0.9,0.9l0.9,0.9 M380.6,48.7l1.8,0.9
	 M375.2,44.2l0.9,0.9 M369.8,38.8l0.9,0.9l0.9,0.9 M366.3,33.4l0.9,1.8 M363.6,26.2V28"/>
<polygon fill="#00B3DC" points="721.5,181.4 713.4,169.8 721.5,168 "/>
<path fill="#00B3DC" d="M362.2,4.8c-4.9,0-8.8,4-8.8,8.8c0,4.9,4,8.8,8.8,8.8c4.9,0,8.8-4,8.8-8.8C371,8.8,367.1,4.8,362.2,4.8z
	 M367.1,14.3h-4.3v4.3h-1.4v-4.3h-4.3V13h4.3V8.7h1.4V13h4.3V14.3z"/>
</svg>
