<?xml version="1.0" encoding="utf-8"?>
<!-- Generator: Adobe Illustrator 18.0.0, SVG Export Plug-In . SVG Version: 6.00 Build 0)  -->
<!DOCTYPE svg PUBLIC "-//W3C//DTD SVG 1.1//EN" "http://www.w3.org/Graphics/SVG/1.1/DTD/svg11.dtd">
<svg version="1.1" id="Layer_1" xmlns="http://www.w3.org/2000/svg" xmlns:xlink="http://www.w3.org/1999/xlink" x="0px" y="0px"
	 viewBox="0 0 93.8 91" enable-background="new 0 0 93.8 91" xml:space="preserve">
<path fill="#FFFFFF" d="M47.2,88.9c-6,0-11.7-1.2-17.2-3.4c-5.2-2.2-10-5.3-14-9.3c-4-4-7.2-8.6-9.4-13.8c-2.3-5.4-3.5-11-3.5-16.9
	c0-5.9,1.2-11.5,3.5-16.9c2.2-5.2,5.4-9.8,9.4-13.8c4-4,8.8-7.1,14-9.3C35.5,3.1,41.2,2,47.2,2c6,0,11.7,1.2,17.2,3.4
	c5.2,2.2,10,5.3,14,9.3c4,4,7.2,8.6,9.4,13.8c2.3,5.4,3.5,11,3.5,16.9c0,5.9-1.2,11.5-3.5,16.9c-2.2,5.2-5.4,9.8-9.4,13.8
	c-4,4-8.8,7.1-14,9.3C58.9,87.7,53.1,88.9,47.2,88.9z M47.2,8.2C26.4,8.2,9.5,24.9,9.5,45.4s16.9,37.2,37.7,37.2
	c20.8,0,37.7-16.7,37.7-37.2S67.9,8.2,47.2,8.2z"/>
<path fill="#FFFFFF" d="M36.3,26.4c-2.1-1.2-3.8,0.1-3.8,2.8l-0.2,33.4c0,2.7,1.7,4,3.8,2.8l31.4-17.1c2.1-1.2,2.1-3.1,0-4.2
	L36.3,26.4z"/>
</svg>
